<?xml version="1.0" encoding="UTF-8"?><svg id="Layer_1" xmlns="http://www.w3.org/2000/svg" viewBox="0 0 120 120"><path d="M109.42,50.62c-1.01-2.89-3.25-5.16-6.14-6.22l-32.69-11.84c-2.03-.74-4.16-.77-6.11-.24l-1.33-9.59c-.42-3.03-2.16-5.69-4.77-7.29-2.61-1.6-5.76-1.94-8.66-.94L16.86,25.89c-2.9,1.01-5.17,3.23-6.23,6.12-1.06,2.88-.77,6.05,.79,8.7l24.87,42.15c1.87,3.17,5.27,5.01,8.8,5.01,1.11,0,2.23-.18,3.31-.56l1.76-.61-.35,2.37c-.71,4.79,2.08,9.45,6.61,11.08l14.65,5.31c1.13,.41,2.3,.61,3.46,.61,3.49,0,6.86-1.8,8.75-4.92l25.24-41.87c1.58-2.61,1.91-5.76,.9-8.64Zm-63.7,28.95c-.9,.32-1.91-.06-2.4-.88L18.46,36.55c-.42-.72-.28-1.39-.16-1.72,.12-.33,.45-.94,1.23-1.21l32.85-11.38c.78-.27,1.41,0,1.71,.19,.3,.19,.83,.62,.95,1.44l6.74,48.43c.13,.95-.43,1.87-1.34,2.19l-14.72,5.1Zm55.8-24.54l-25.24,41.87c-.5,.82-1.52,1.18-2.42,.86l-14.66-5.32c-.89-.32-1.44-1.24-1.3-2.19l.98-6.58,4.25-1.47c4.59-1.59,7.43-6.23,6.76-11.04l-4.23-30.41c.5-.53,1.29-.81,2.15-.5l32.67,11.83c.79,.29,1.11,.9,1.23,1.24,.12,.33,.25,.99-.18,1.7Z"/></svg>